/* XPM */
static char *b6d67a51b7dd4e66e595cb71cc2ac62dhGnA5GdBnFwlg17H[] = {
/* columns rows colors chars-per-pixel */
"64 64 256 2 ",
"   c black",
".  c #0000A8",
"X  c #00A800",
"o  c #00A8A8",
"O  c #A80000",
"+  c #A800A8",
"@  c #A85400",
"#  c gray66",
"$  c gray33",
"%  c #5454FC",
"&  c #54FC54",
"*  c #54FCFC",
"=  c #FC5454",
"-  c #FC54FC",
";  c #FCFC54",
":  c gray99",
">  c #ECECEC",
",  c gainsboro",
"<  c #D0D0D0",
"1  c #C0C0C0",
"2  c #B4B4B4",
"3  c gray66",
"4  c #989898",
"5  c gray55",
"6  c #7C7C7C",
"7  c gray44",
"8  c #646464",
"9  c gray33",
"0  c #484848",
"q  c gray22",
"w  c #2C2C2C",
"e  c #202020",
"r  c #FC0000",
"t  c #EC0000",
"y  c #E00000",
"u  c #D40000",
"i  c #C80000",
"p  c #BC0000",
"a  c #B00000",
"s  c #A40000",
"d  c #980000",
"f  c #880000",
"g  c #7C0000",
"h  c #700000",
"j  c #640000",
"k  c #580000",
"l  c #4C0000",
"z  c #400000",
"x  c #FCD8D8",
"c  c #FCB8B8",
"v  c #FC9C9C",
"b  c #FC7C7C",
"n  c #FC5C5C",
"m  c #FC4040",
"M  c #FC2020",
"N  c #FC0000",
"B  c #FCA85C",
"V  c #FC9840",
"C  c #FC8820",
"Z  c #FC7800",
"A  c #E46C00",
"S  c #CC6000",
"D  c #B45400",
"F  c #9C4C00",
"G  c #FCFCD8",
"H  c #FCFCB8",
"J  c #FCFC9C",
"K  c #FCFC7C",
"L  c #FCF85C",
"P  c #FCF440",
"I  c #FCF420",
"U  c #FCF400",
"Y  c #E4D800",
"T  c #CCC400",
"R  c #B4AC00",
"E  c #9C9C00",
"W  c #848400",
"Q  c #706C00",
"!  c #585400",
"~  c #404000",
"^  c #D0FC5C",
"/  c #C4FC40",
"(  c #B4FC20",
")  c #A0FC00",
"_  c #90E400",
"`  c #80CC00",
"'  c #74B400",
"]  c #609C00",
"[  c #D8FCD8",
"{  c #BCFCB8",
"}  c #9CFC9C",
"|  c #80FC7C",
" . c #60FC5C",
".. c #40FC40",
"X. c #20FC20",
"o. c #00FC00",
"O. c #00FC00",
"+. c #00EC00",
"@. c #00E000",
"#. c #00D400",
"$. c #04C800",
"%. c #04BC00",
"&. c #04B000",
"*. c #04A400",
"=. c #049800",
"-. c #048800",
";. c #047C00",
":. c #047000",
">. c #046400",
",. c #045800",
"<. c #044C00",
"1. c #044000",
"2. c #D8FCFC",
"3. c #B8FCFC",
"4. c #9CFCFC",
"5. c #7CFCF8",
"6. c #5CFCFC",
"7. c #40FCFC",
"8. c #20FCFC",
"9. c #00FCFC",
"0. c #00E4E4",
"q. c #00CCCC",
"w. c #00B4B4",
"e. c #009C9C",
"r. c #008484",
"t. c #007070",
"y. c #005858",
"u. c #004040",
"i. c #5CBCFC",
"p. c #40B0FC",
"a. c #20A8FC",
"s. c #009CFC",
"d. c #008CE4",
"f. c #007CCC",
"g. c #006CB4",
"h. c #005C9C",
"j. c #D8D8FC",
"k. c #B8BCFC",
"l. c #9C9CFC",
"z. c #7C80FC",
"x. c #5C60FC",
"c. c #4040FC",
"v. c #2024FC",
"b. c #0004FC",
"n. c #0000FC",
"m. c #0000EC",
"M. c #0000E0",
"N. c #0000D4",
"B. c #0000C8",
"V. c #0000BC",
"C. c #0000B0",
"Z. c #0000A4",
"A. c #000098",
"S. c #000088",
"D. c #00007C",
"F. c #000070",
"G. c #000064",
"H. c #000058",
"J. c #00004C",
"K. c #000040",
"L. c #282828",
"P. c #FCE034",
"I. c #FCD424",
"U. c #FCCC18",
"Y. c #FCC008",
"T. c #FCB400",
"R. c #B420FC",
"E. c #A800FC",
"W. c #9800E4",
"Q. c #8000CC",
"!. c #7400B4",
"~. c #60009C",
"^. c #500084",
"/. c #440070",
"(. c #340058",
"). c #280040",
"_. c #FCD8FC",
"`. c #FCB8FC",
"'. c #FC9CFC",
"]. c #FC7CFC",
"[. c #FC5CFC",
"{. c #FC40FC",
"}. c #FC20FC",
"|. c #FC00FC",
" X c #E000E4",
".X c #C800CC",
"XX c #B400B4",
"oX c #9C009C",
"OX c #840084",
"+X c #6C0070",
"@X c #580058",
"#X c #400040",
"$X c #FCE8DC",
"%X c #FCE0D0",
"&X c #FCD8C4",
"*X c #FCD4BC",
"=X c #FCCCB0",
"-X c #FCC4A4",
";X c #FCBC9C",
":X c #FCB890",
">X c #FCB080",
",X c #FCA470",
"<X c #FC9C60",
"1X c #F0945C",
"2X c #E88C58",
"3X c #DC8854",
"4X c #D08050",
"5X c #C87C4C",
"6X c #BC7848",
"7X c #B47044",
"8X c #A86840",
"9X c #A0643C",
"0X c #9C6038",
"qX c #905C34",
"wX c #885830",
"eX c #80502C",
"rX c #744C28",
"tX c #6C4824",
"yX c #5C4020",
"uX c #543C1C",
"iX c #483818",
"pX c #403018",
"aX c #382C14",
"sX c #28200C",
"dX c #600064",
"fX c #006464",
"gX c #006060",
"hX c #00001C",
"jX c #00002C",
"kX c #302410",
"lX c #480048",
"zX c #500050",
"xX c #000034",
"cX c gray11",
"vX c #4C4C4C",
"bX c gray36",
"nX c gray25",
"mX c gray19",
"MX c #343434",
"NX c #D8F4F4",
"BX c #B8E8E8",
"VX c #9CDCDC",
"CX c #74C8C8",
"ZX c #48C0C0",
"AX c #20B4B4",
"SX c #20B0B0",
"DX c #00A4A4",
"FX c #009898",
"GX c #008C8C",
"HX c #008484",
"JX c #007C7C",
"KX c #007878",
"LX c #007474",
"PX c #007070",
"IX c #006C6C",
"UX c #980088",
/* pixels */
"f.f.f.f.f.f.f.f.f.f.f.f.f.f.f.f.f.f.f.f.f.f.f.f.f.f.f.f.f.f.f.f.f.f.f.f.f.f.f.f.f.f.f.f.f.f.f.f.f.f.f.f.f.f.f.f.f.f.f.f.f.f.f.f.",
"f.f.f.f.f.f.f.f.f.f.f.f.f.f.f.f.f.f.f.f.f.f.f.f.f.f.f.f.f.f.f.f.f.f.f.f.f.f.f.f.f.f.f.f.f.f.f.f.f.f.f.f.f.f.f.f.f.f.f.f.f.f.f.f.",
"f.f.f.f.f.f.f.f.f.f.f.f.f.f.f.f.f.f.f.f.f.f.f.f.f.f.f.f.f.f.f.f.f.f.f.f.f.f.f.f.f.f.f.f.f.f.f.f.f.f.f.f.f.f.f.f.f.f.f.f.f.f.f.f.",
"f.f.f.f.f.f.f.f.f.f.f.f.f.f.f.f.f.f.f.f.f.f.f.f.f.f.f.f.f.f.f.f.f.f.f.f.f.f.f.f.f.f.f.f.f.f.f.f.f.f.f.f.f.f.f.f.f.f.f.f.f.f.f.f.",
"f.f.f.f.f.f.f.f.f.f.f.f.f.f.f.f.f.f.f.f.f.f.f.f.f.f.f.f.f.f.f.f.f.f.f.f.f.f.f.f.f.f.f.f.f.f.f.f.f.f.f.f.f.f.f.f.f.f.f.f.f.f.f.f.",
"f.f.f.f.f.f.f.f.f.f.f.f.f.f.f.f.f.f.f.f.f.f.f.f.f.f.f.f.f.f.f.f.f.f.f.f.f.f.f.f.f.f.f.f.f.f.f.f.f.f.f.f.f.f.f.f.f.f.f.f.f.f.f.f.",
"f.f.f.f.f.f.f.f.f.f.f.f.f.f.f.f.f.f.f.f.f.f.f.f.f.f.f.f.f.f.f.f.f.f.f.f.f.f.f.f.f.f.f.f.f.f.f.f.f.f.f.f.f.f.f.f.f.f.f.f.f.f.f.f.",
"f.f.f.f.f.f.f.f.f.f.f.f.f.f.f.f.f.f.f.f.f.f.f.f.f.f.f.f.f.f.f.f.f.f.f.f.f.f.f.f.f.f.f.f.f.f.f.f.f.f.f.f.f.f.f.f.f.f.f.f.f.f.f.f.",
"f.f.f.f.f.f.f.f.f.f.f.f.f.f.f.f.f.f.f.f.f.f.f.f.f.f.f.f.f.f.f.f.f.f.f.f.f.f.f.f.f.f.f.f.f.f.f.f.f.f.f.f.f.f.f.f.f.f.f.f.f.f.f.f.",
"6 6 5 6 6 5 6 6 5 5 5 4 4 4 6 7 f.f.f.f.f.f.f.f.f.f.f.f.f.f.f.f.f.f.f.f.f.f.f.f.f.f.f.f.f.f.f.f.5 5 6 6 5 5 5 6 6 5 7 6 5 6 7 7 ",
"6 7 6 7 7 6 7 6 6 5 6 5 5 6 8 $ f.f.f.f.f.f.f.f.f.f.f.f.f.f.f.f.f.f.f.f.f.f.f.f.f.f.f.f.f.f.f.f.6 5 6 6 6 6 7 7 6 6 6 7 6 6 7 7 ",
"0 $ 0 vX$ $ bXbX8 8 7 8 bXbXnXmXf.f.f.f.f.f.f.f.f.f.f.f.f.f.f.f.f.f.f.f.f.f.f.f.f.f.f.f.f.f.f.f.6 6 bXbXbX$ $ $ 0 vX$ $ vX$ vX0 ",
"nX$ 0 vX0 vX$ vX$ bXbXbX8 $ nXMXf.f.f.f.f.f.f.f.f.f.f.f.f.f.f.f.f.f.f.f.f.f.f.f.f.f.f.f.f.f.f.f.6 7 vXvXvXvXvXvXvX0 0 vX0 nX0 nX",
"0 vX0 0 nXnX0 vXvXvX$ $ bXvXq MXf.f.f.f.f.f.f.f.f.f.f.f.f.f.f.f.f.f.f.f.f.f.f.f.f.f.f.f.f.f.f.f.5 7 0 vX$ vXvX0 vXvX0 $ vXvX0 0 ",
"bX$ $ 0 0 vX0 $ $ vX0 bX$ 0 nXMXf.f.f.f.f.f.f.f.f.f.f.f.f.f.f.f.f.f.f.f.f.f.f.f.f.f.f.f.f.f.f.f.5 6 $ $ bX$ $ nXvXvX0 $ $ $ 0 vX",
"0 0 vXnXvX$ vX$ vXvXbX$ bX$ nXMXf.f.f.f.f.f.f.f.f.f.f.f.f.f.f.f.f.f.f.f.f.f.f.f.f.f.f.f.f.f.f.f.5 6 vX0 $ $ nX0 $ vXvX$ $ vX0 nX",
"0 0 0 vXvXvX0 nXnX0 $ $ vXvXnXmXf.f.f.f.f.f.f.f.f.f.f.f.f.f.f.f.f.f.f.f.f.f.f.f.f.f.f.f.f.f.f.f.6 6 0 nXvX$ 0 0 vX$ vX$ $ nX0 nX",
"0 0 0 0 0 0 nX0 0 0 $ bXvXvXnXMXf.f.f.f.f.f.f.f.f.f.f.f.f.f.f.f.f.f.f.f.f.f.f.f.f.f.f.f.f.f.f.f.6 6 0 nX0 vX0 vX$ $ nX0 vXvX0 nX",
"nXvX0 0 0 vX0 $ $ vXvXvX$ $ nXMXf.f.f.f.f.f.f.f.f.f.f.f.f.f.f.f.f.f.f.f.f.f.f.f.f.f.f.f.f.f.f.f.5 5 $ vX$ vX0 0 nXnXnX0 0 0 nX0 ",
"0 vX0 vX$ $ 0 vX$ $ vXvXvX0 nXmXbX6 5 6 6 5 6 6 5 5 5 4 4 4 5 5 5 5 6 6 5 5 5 6 6 5 7 6 5 6 7 7 5 6 $ vXvX$ $ 0 vX0 vXvX$ $ nX0 ",
"0 nXnXvXvXnXnX0 vX0 vXvXvX0 0 q 0 bX6 7 7 6 7 6 6 5 6 5 5 6 5 6 6 5 6 6 6 6 7 7 6 6 6 7 6 6 7 6 7 8 bX$ $ vX0 0 0 0 vXvX$ $ vXvX",
"0 0 0 vXvX0 vX$ vX0 0 0 vX0 $ $ 0 $ 0 vX$ $ bXbX8 8 7 8 bXbXbXbX$ 8 bXbXbX$ $ $ 0 vX$ $ vX$ vX0 $ bX$ 0 vXvX0 0 0 0 vX$ vXvXvXvX",
"q nX0 0 vXnX0 vX0 0 vXvXvX0 $ vXnX$ 0 vX0 vX$ vX$ bXbXbX8 $ $ vXbX$ vXvXvXvXvXvXvX0 0 vX0 nX0 nX$ vX0 vX0 0 q 0 0 nX0 0 vXvXnXq ",
"MXMXq nXq q MXq q q nXnXq MXq q nXnXnXnX0 nXnXq q q nXq MXMXq q q q q MXMXnXnX0 nXnXnXnXnXq nXnXq q MXq MXq q q q MXq nXnXMXmXq ",
"L.mXw w w L.L.w w MXmXmXmXw mXw w mXMXw MXmXmXmXq q q mXmXmXmXMXq q mXmXmXMXmXmXMXMXmXMXMXMXMXmXmXL.w L.mXw w w MXw mXmXmXL.w w ",
"e cXcXcXcXe cXcXe e cXe e e e e cXcXcXe e cXe e cXe cXe e e e e e e L.L.e e e cXe e e cXcXcXcXcXcXcXcXcXcXcXcXe e cXe cXe cXcXcX",
"L.L.L.L.L.L.L.L.L.L.L.L.L.L.L.L.L.L.L.L.L.L.L.L.L.L.L.L.L.L.L.L.w L.L.L.w L.L.L.L.L.L.L.L.L.w L.L.L.L.L.L.L.e L.L.L.L.L.L.L.L.L.",
"L.L.L.L.L.L.L.L.w w L.L.L.L.L.L.L.L.L.L.L.L.L.L.w L.L.L.w w w w mXw w w w L.mXmXmXw w w L.L.mXw w w w L.L.L.L.L.L.L.L.L.L.L.L.L.",
"w L.L.w mXL.w L.mXw mXmXmXmXw w w w L.w mXw mXw w mXw mXL.w w w mXmXmXmXmXmXmXmXmXmXmXL.MXmXmXw mXMXw mXw w L.w mXL.w w L.L.w w ",
"w L.w mXmXmXw L.w mXmXmXmXw mXmXw w mXmXmXMXMXw mXmXmXMXmXmXw mXq q q nXmXmXMXmXw MXmXmXq MXmXmXmXmXw w mXL.MXmXmXw mXw mXmXw mX",
"mXmXmXmXMXMXMXq q mXMXq q q MXMXq mXmXMXMXMXMXq MXq q nXq mXMXq q nXq nXnXmXq q q mXMXq q MXMXmXmXmXq MXmXmXmXmXmXMXmXmXq MXmXmX",
"q mXnXq MXq q MXq q MXnXnXnXMXq MXMXmXMXnXq q nXq q nXq nXw nXq q nXq q q nXmXq MXmXMXq q mXnXmXq q q MXMXMXnXq mXq MXMXq MXMXMX",
"q q q MXq q q nXq nXq nXnXq nXq MXq nXnXq q nXnXnXnXmXnXq nXq q nXq 0 0 nXq 0 nXq nXnXq nXnXq MXnXq nXq q q w mXMXq q q q MXmXmX",
"q q q nXnXnXnXnX0 nXvX0 nXnXnXMXnXq MXnXnXq nX0 nXnXvXnXq q nXnX0 vXnX0 nX0 nXnXnXnXnXnX0 nX0 q nXnXnXq nXnXq q MXq nXq q nXMXq ",
"q 0 q q nXnXvXq nXvX0 0 $ nXq nXnXq nX0 nX0 nX0 0 0 vXvXnXMX0 nXvX$ nX$ 0 vXnX$ nXnXnXnX0 nX0 nX0 0 nXnXnXq q q nXq q q q q nXq ",
"q nXnXnXnXq MXnXnX0 nXnXvXq q MXnXq q 0 0 nX0 nX0 0 nXnXnXnXnXnXvX0 0 nXvX0 vXnXnX0 nXnX0 nX0 nX$ nXq q nXnX0 MXMXnXnXvXnXq nXq ",
"vXnXvXnXnX0 0 nX0 nXnX0 nXnXq nXnXq nXnX0 nXnX$ 0 0 0 vX0 nXnXvXvX$ 0 $ nXnXnXvXnX0 0 nX0 vX0 nX0 0 nX0 nXnXnXq nXnXnX0 nX0 nXnX",
"nX0 nXnXnXvXnXnXnXnXnX0 0 nXnXnXq q nXnXvX0 $ vXvXvXnX0 0 nXnXvX$ 0 vX0 vX0 vXnXvXnXvXvX0 0 nX0 0 0 0 nX0 0 q q nXq nX0 nXnXnXq ",
"0 nXnXnX0 0 nXq nXnXvX0 nXnXq nXq nXq vXnX0 0 0 nXbX$ 0 q 0 0 vX$ vX$ $ $ vXnX0 0 0 0 nX0 0 $ 0 0 0 nXq nX0 nXq q 0 nXvX0 nXnXnX",
"nXnX0 nXnXnXq nXnX0 nXvXnXnXq nXnXnXnXnX0 0 0 vX0 0 0 vX$ nXq 0 0 0 $ 0 $ vXq nXvX0 vXnX0 nX0 vXnXvXnXq q nXq 0 nXnXq nX0 nX0 nX",
"nX0 nXnXnXvX0 nX0 nXnX0 vXnX0 nX0 vXvX0 $ vXvXvX0 $ $ 0 vXvXnX0 0 $ 0 vX0 0 0 0 nX0 vXvX$ $ vXvXvX$ vX0 vXnXq nXq q nX0 nX0 q 0 ",
"nX0 0 vXvX0 nX0 vXvX0 0 nXnXq nX0 nXnXvXbX$ vXvXvX0 $ vX0 vXnX$ vX$ vX0 0 vXnXvXvXvX$ vXvX0 $ vX$ vXvX0 nX0 nXnXnXq 0 0 0 0 q nX",
"vXq nX0 vX0 nXnX0 nX0 0 0 nX0 vX0 q nX$ vXvXnXvX0 $ 0 0 bX0 vX0 0 bXnXvX0 vX0 nX0 vXnX0 vX0 0 vX0 bXbX0 0 0 q q nXnX0 0 vXvXnX0 ",
"nX0 0 vX0 nX$ vX$ nX0 0 0 nX0 nXnXnX0 vX$ 0 $ vXvXvX0 vX0 0 vX0 $ vXvXvX$ 0 vXnX0 0 vX0 vXbX0 0 $ $ 0 nXvXnXnXnXq nXvX0 0 vX0 0 ",
"vXnX0 0 vX0 0 nXnX0 0 0 0 nX0 nXnX0 0 vX$ 0 vXvX$ nXvX0 vX$ vXvXvXvXbX0 0 0 nXvX$ $ 0 $ bXvXvX$ vXvX0 nX0 vXq nXnXq nX0 $ 0 nXnX",
"nX0 0 0 vX0 0 nX0 0 $ $ 0 nXnXnX0 0 0 $ $ vX$ vX$ $ bX$ 0 0 vXvXvXbX$ vXvXvX0 0 vX$ vX0 $ 0 $ $ vX$ 0 0 nXnX0 nX0 nX0 vX0 0 0 0 ",
"0 0 0 vX0 $ nXnXvX0 0 $ vX0 nXnX0 0 $ vXvX0 vX$ vXvX$ vXvXnX0 vX$ $ $ $ 0 vXnX0 $ $ vXvXbX0 vX$ 0 0 0 0 nX0 nXvXnXnX0 0 vX0 nXnX",
"0 0 vXvXvXvXnX0 0 0 0 0 0 0 nXnX0 0 nX$ vXvXvXvXvX$ $ $ 0 vX0 vX$ $ $ vX$ 0 vXnXvXvXvX0 $ 0 0 vXvX$ vX0 nX0 0 nXq nX0 0 vX0 0 nX",
"nX0 0 0 0 $ 0 nX0 0 0 $ $ 0 vX$ $ vX0 vXbX0 $ vXvX$ vX$ vX0 vX$ $ $ vXvXvXvXvX$ $ vX0 vXvX0 0 $ bX$ $ vX0 $ 0 nXnX0 0 0 0 nXnXvX",
"vX0 0 $ $ 0 nXvX0 0 0 vXvXvXvX0 vX0 0 bX$ vXvXvXvXvX0 $ vXvX$ $ $ vX0 $ $ vX0 vXvXvX$ $ bX0 vX$ vX$ vX0 vX0 0 0 0 vXvXvXvXvX0 0 ",
"vX0 vX0 vXvX0 vX0 0 vXvXvX0 $ 0 0 vX$ bXvXvX$ $ $ $ vX0 $ $ $ $ $ $ vX$ 0 $ 0 $ vX$ $ 0 $ vXvX$ bX$ $ vXvXvXnX0 0 vXvXvXvX$ vXvX",
"0 0 vX0 0 0 0 vX0 vXvXbXvXvXvX0 $ 0 $ $ $ $ $ $ $ $ $ $ $ $ $ $ bXbX$ $ $ vXvXbX0 vX$ $ $ $ vXvXbX$ 0 0 vX0 nX0 vX0 0 vXvX0 0 vX",
"$ 0 vXvX$ vXbX0 0 vX$ vXvX0 0 bX0 0 $ $ bXvX$ $ $ vXvX$ $ $ $ $ $ bX$ bXvXbXbX$ $ bXvX$ bX$ $ $ bX$ bX$ 0 vXvX0 0 vXvX0 0 vXvXvX",
"vX0 vX0 $ vXvX0 vX$ vXbXvXnX0 0 vXvXvXbX$ vXvXvXbX$ vX$ $ $ $ vX$ 8 bXbX$ bXvX$ $ $ $ $ bXbXbX$ $ $ $ vXvX0 vXvX0 0 vXvX0 vXvX0 ",
"0 vXvX0 0 $ vX0 0 vXvX$ vXvXvXvX$ vX0 $ $ $ bXvX$ vXbX$ $ 0 $ $ bXbX$ vXbX$ $ $ $ $ 0 $ $ $ $ vXbXvX$ $ $ vX0 vX0 $ $ 0 vX$ $ $ ",
"vX$ vXvXvX$ vX0 vXvX0 $ $ $ $ $ vX$ vXbX$ vXbX$ $ $ $ bXvX$ $ $ bX$ bX$ $ bX$ $ $ $ vXbX$ $ bX$ $ $ vX0 $ vX0 vX0 bXvXvXvXbX0 $ ",
"vX$ 0 0 vX$ 0 0 vX0 vX0 vX0 0 $ vX$ $ $ 0 0 bXbX$ $ $ $ bX$ $ bX$ vXvX$ vXbX$ bXbX$ $ $ bX$ $ bX$ $ vXnX$ vX0 vXvX0 $ $ 0 $ vX0 ",
"$ vX0 0 vXvXvX0 vX$ vX$ vX$ vXvX$ $ vX$ 8 vXbX$ $ bXbX$ $ $ $ vXvX$ $ $ bXbX$ $ bXvX$ $ bX$ bX$ vXvX$ bX0 vX$ vXvX0 0 vXvX$ 0 0 ",
"vXvX0 $ vXvX0 vXvXvX0 $ 0 0 0 vX$ vXbX$ $ vXbXvX$ $ $ bX$ vXvX$ $ $ $ $ bX$ $ bX$ vX$ $ bXvX0 $ $ bX$ 0 vX$ $ $ $ 0 $ vX$ $ vX$ ",
"vX$ vXvX$ $ vXvX$ vX$ $ vXvXvXvXvXvXvX$ vX0 $ vX$ $ $ vX$ 0 $ $ $ $ bX$ bXbXvXbX$ $ vXbX$ bXvXvXvX$ $ 0 vX$ $ vX0 $ 0 vXvX$ 0 vX",
"$ vXvXvX$ $ $ vXvX$ 0 $ $ vXvX$ vX$ $ $ $ 0 vX$ bX$ vX$ vX$ bX$ $ bXbX$ bXvX$ $ bX$ vX$ $ $ vXvX$ $ $ vX$ 0 $ 0 vX$ 0 $ vX$ vX$ ",
"vXvXvX$ vX$ $ vX$ $ 0 vX0 vX$ vXvX0 0 bX$ vXvXvXvXvX0 $ vXvX$ $ $ vX0 $ $ vX0 vXvXvX$ $ bX0 vX$ bX$ $ vXvX$ bXvX$ vXvX$ 0 vX0 vX",
"vXvX$ $ vXvX$ nXvX$ vX$ vXvX0 vX0 vX$ bXvXvX$ $ $ $ vX0 $ $ $ $ $ $ vX$ 0 $ 0 $ vX$ $ 0 $ vXvX$ vX$ $ $ vX$ $ $ vXvX0 0 vXvXvXvX",
"$ vXvXvXvXvX$ bX0 vX$ vX$ 0 vXvX$ 0 $ $ $ $ $ $ $ $ $ $ $ $ $ $ bXbX$ $ $ vXvXbX0 vX$ $ $ $ vXvX$ $ $ 0 $ vXvX$ 0 vX0 0 $ vX0 0 "
};
